<svg width="140" height="49" viewBox="0 0 140 49" fill="none" xmlns="http://www.w3.org/2000/svg">
<path fill-rule="evenodd" clip-rule="evenodd" d="M62.139 0L69.9712 15.8308L78.6096 7.91515L74.8834 0H62.139Z" fill="white"/>
<path fill-rule="evenodd" clip-rule="evenodd" d="M85.5433 0L54.6523 36.1846H66.9574L75.0298 26.5727L79.4808 36.1846H100.686L103.534 20.0611L106.106 28.9628L113.797 19.7194L108.12 0H85.5433ZM83.2884 17.325L96.2879 2.31002L90.8122 33.3022L83.2884 17.325Z" fill="white"/>
<path fill-rule="evenodd" clip-rule="evenodd" d="M126.583 0L106.31 31.2568H116.48L124.198 19.0251L121.218 36.1846H131.472L137.754 0H126.583Z" fill="white"/>
<path fill-rule="evenodd" clip-rule="evenodd" d="M17.7997 1.47369C17.652 3.0468 17.4029 4.89656 17.5694 6.57234C17.8068 8.97466 19.2896 10.2048 21.2304 10.9718C21.8166 11.2033 22.6704 11.5453 23.441 11.3734C23.7972 11.2926 24.043 11.0502 24.2659 10.9057C24.9217 10.4841 25.7333 10.0924 26.7066 9.9731C28.1645 9.79437 29.5464 10.173 30.6318 10.4727C31.6649 10.7602 33.0162 11.1771 33.8945 11.7057C34.3779 11.9947 34.7263 12.4327 34.9845 12.8738C35.4338 13.6374 35.6161 14.9429 36.6339 15.1711C36.8821 14.1225 36.6819 12.9625 36.7334 11.8043C36.779 10.7381 36.9705 9.65629 37.1615 8.70729C37.437 7.33406 37.8258 5.85863 38.2499 4.50726C38.3157 4.29788 38.5065 3.22458 38.9106 3.37502C39.0866 3.44133 39.0482 3.88101 39.0412 4.10822C39.0169 4.99947 38.9452 5.654 38.8768 6.54025C38.7079 8.73177 38.6813 11.1721 39.0748 13.0399C39.2879 14.0507 39.5264 15.0164 39.438 16.1724C39.4152 16.4676 39.2628 16.811 39.2063 17.1368C39.16 17.4089 39.2054 17.6319 39.1407 17.8396C39.0412 18.1557 38.7761 18.5576 38.5474 18.9046C38.4886 18.9916 38.3793 19.1986 38.2499 19.4389C38.1358 19.647 37.9417 19.7511 37.9535 19.9703C37.9683 20.3085 38.6288 20.9706 38.9753 21.0702C40.4506 21.4918 42.0847 21.7159 42.9659 22.6024C43.4862 23.126 43.9032 23.8017 43.9884 24.7367C44.0627 25.53 43.7999 26.1938 43.4932 26.9023C43.2848 27.3845 43.087 28.5704 42.7356 28.8017C42.4756 28.9738 42.0525 28.8671 41.7458 29.037C41.6519 29.4607 41.4543 29.784 41.416 30.2681C41.1652 30.6246 40.7933 30.8585 40.5264 31.2002C40.6115 31.9883 40.1213 32.1918 39.47 32.2353C37.5435 33.8238 33.7136 32.7733 32.0821 31.7015C31.2744 32.284 30.3737 32.7733 30.4673 34.268C31.1627 34.6625 31.7105 35.1222 32.5446 35.3998C33.6431 35.771 34.9963 35.5714 35.7109 36.2328C35.7671 36.2858 35.821 36.3511 35.8765 36.4106H41.3967L57.0782 18.0062L48.5093 0.149658H17.9063C17.8726 0.606452 17.8413 1.04352 17.7997 1.47369" fill="#FF0000"/>
<path fill-rule="evenodd" clip-rule="evenodd" d="M3.42028 36.2328C4.41032 35.1785 5.84776 34.4531 7.24639 33.8338C8.33641 33.3511 9.45372 32.9366 10.3132 32.2352C10.6943 31.9227 10.993 31.5997 11.4338 31.5329C12.3018 31.4079 13.1446 31.7932 13.8103 31.9348C15.6071 32.3191 16.9796 31.4122 17.8669 30.467C18.3185 29.9891 18.8929 29.5256 19.1529 28.867C19.4805 28.0431 19.3352 27.0087 19.35 25.9699C19.382 23.8896 20.1208 22.4268 20.142 20.5045C20.1537 19.5185 19.9166 18.5462 20.0439 17.537C19.0176 17.0042 17.8286 16.4923 17.0086 15.5725C16.2112 14.6763 15.287 13.0048 15.5577 11.54C14.949 10.5943 14.4096 9.30549 14.4035 7.80653C14.3964 6.32682 14.8396 5.0912 15.2282 3.73983C15.5685 2.55649 15.9106 1.35794 16.2737 0.149414H9.38974L1.63635 36.4106H3.27161C3.32195 36.3526 3.36735 36.2898 3.42028 36.2328" fill="#FF0000"/>
<mask id="mask0_62_61" style="mask-type:alpha" maskUnits="userSpaceOnUse" x="0" y="42" width="7" height="7">
<path fill-rule="evenodd" clip-rule="evenodd" d="M0 42.9998H6.52755V48.1241H0V42.9998Z" fill="white"/>
</mask>
<g mask="url(#mask0_62_61)">
<path fill-rule="evenodd" clip-rule="evenodd" d="M1.07249 42.9998H2.6139L3.0046 46.71H3.01872L4.972 42.9998H6.52752L5.45514 48.1241H4.41099L5.33424 44.0474H5.32013L3.1749 48.1241H2.32269L1.83249 44.0474H1.81838L1.05814 48.1241H-0.00012207L1.07249 42.9998Z" fill="white"/>
</g>
<path fill-rule="evenodd" clip-rule="evenodd" d="M7.75538 42.9998H11.6267L11.4347 43.9471H8.67886L8.4514 45.0453H11.0014L10.8168 45.9209H8.26676L8.00401 47.1765H10.8027L10.6037 48.1241H6.69006L7.75538 42.9998Z" fill="white"/>
<path fill-rule="evenodd" clip-rule="evenodd" d="M12.748 42.9998H14.2894L14.6801 46.71H14.6943L16.6475 42.9998H18.2031L17.1307 48.1241H16.0865L17.0098 44.0474H16.9957L14.8504 48.1241H13.9982L13.508 44.0474H13.4939L12.7337 48.1241H11.6754L12.748 42.9998Z" fill="white"/>
<path fill-rule="evenodd" clip-rule="evenodd" d="M20.3615 45.0739H21.6258C22.0306 45.0739 22.3788 44.8445 22.3788 44.3994C22.3788 44.0117 22.1515 43.8753 21.7893 43.8753H20.6101L20.3615 45.0739ZM19.9068 47.2485H21.3061C21.8105 47.2485 22.1798 46.9688 22.1798 46.4233C22.1798 45.8848 21.7039 45.842 21.2991 45.842H20.2051L19.9068 47.2485ZM19.7151 42.9998H21.846C22.8617 42.9998 23.4939 43.2222 23.4939 44.1983C23.4939 44.7796 23.1388 45.3179 22.5422 45.39V45.4045C23.0251 45.5335 23.2949 45.9499 23.2949 46.4447C23.2949 47.5572 22.3717 48.1241 21.356 48.1241H18.6498L19.7151 42.9998Z" fill="white"/>
<path fill-rule="evenodd" clip-rule="evenodd" d="M25.0912 42.9998H28.9625L28.7705 43.9471H26.0147L25.7872 45.0453H28.3373L28.1526 45.9209H25.6026L25.3398 47.1765H28.1385L27.9395 48.1241H24.0259L25.0912 42.9998Z" fill="white"/>
<path fill-rule="evenodd" clip-rule="evenodd" d="M30.8438 45.3179H31.8736C32.4633 45.3179 33.0246 45.0812 33.0246 44.507C33.0246 43.9542 32.6409 43.8753 32.2006 43.8753H31.1423L30.8438 45.3179ZM30.2045 42.9998H32.6268C33.543 42.9998 34.1397 43.3517 34.1397 44.3419C34.1397 45.038 33.6566 45.6193 32.9747 45.7198V45.7343C33.3939 45.8634 33.5004 46.2365 33.5004 46.6387C33.5004 46.8682 33.4649 47.2129 33.4649 47.5285C33.4649 47.7583 33.479 47.9736 33.5359 48.1241H32.4492C32.4207 48.0019 32.3993 47.8947 32.3993 47.7795C32.3993 47.4351 32.4563 47.0833 32.4563 46.739C32.4563 46.2437 32.1651 46.122 31.7247 46.122H30.6733L30.2543 48.1241H29.1392L30.2045 42.9998Z" fill="white"/>
<path fill-rule="evenodd" clip-rule="evenodd" d="M39.2952 47.2985C40.389 47.2985 40.9361 46.1218 40.9361 45.1526C40.9361 44.4349 40.6235 43.825 39.8066 43.825C38.6629 43.825 38.1445 44.9948 38.1445 45.9778C38.1445 46.6815 38.4856 47.2985 39.2952 47.2985ZM39.7995 42.8774C41.1704 42.8774 42.0513 43.6384 42.0513 45.0737C42.0513 46.7604 41.0568 48.2458 39.2811 48.2458C37.8603 48.2458 37.0293 47.4207 37.0293 45.9778C37.0293 44.3203 38.0878 42.8774 39.7995 42.8774Z" fill="white"/>
<path fill-rule="evenodd" clip-rule="evenodd" d="M43.6058 42.9998H47.2141L47.0081 43.9471H44.5222L44.2734 45.1314H46.4471L46.2624 46.0067H44.0958L43.6484 48.1241H42.5332L43.6058 42.9998Z" fill="white"/>
<path fill-rule="evenodd" clip-rule="evenodd" d="M51.2192 43.9471H49.6282L49.8269 42.9998H54.0605L53.8615 43.9471H52.3415L51.4749 48.1238H50.3527L51.2192 43.9471Z" fill="white"/>
<path fill-rule="evenodd" clip-rule="evenodd" d="M55.6508 45.3179H56.6806C57.2703 45.3179 57.8316 45.0812 57.8316 44.507C57.8316 43.9542 57.4479 43.8753 57.0076 43.8753H55.9493L55.6508 45.3179ZM55.0115 42.9998H57.4338C58.35 42.9998 58.9467 43.3517 58.9467 44.3419C58.9467 45.038 58.4636 45.6193 57.7817 45.7198V45.7343C58.2009 45.8634 58.3074 46.2365 58.3074 46.6387C58.3074 46.8682 58.2719 47.2129 58.2719 47.5285C58.2719 47.7583 58.286 47.9736 58.3429 48.1241H57.2562C57.2277 48.0019 57.2063 47.8947 57.2063 47.7795C57.2063 47.4351 57.2633 47.0833 57.2633 46.739C57.2633 46.2437 56.9721 46.122 56.5317 46.122H55.4803L55.0614 48.1241H53.9462L55.0115 42.9998Z" fill="white"/>
<path fill-rule="evenodd" clip-rule="evenodd" d="M61.4884 46.1434H62.8452L62.5966 44.1051H62.5822L61.4884 46.1434ZM62.2273 42.9998H63.3707L64.2161 48.1241H63.108L62.9445 46.983H61.0481L60.4088 48.1241H59.2296L62.2273 42.9998Z" fill="white"/>
<path fill-rule="evenodd" clip-rule="evenodd" d="M66.2467 47.1765H67.1059C68.2425 47.1765 68.8748 46.2722 68.8748 45.1889C68.8748 44.4493 68.5622 43.9471 67.7667 43.9471H66.9284L66.2467 47.1765ZM66.0053 42.9998H67.8377C69.2512 42.9998 69.99 43.7391 69.99 44.9947C69.99 46.782 69.0096 48.1238 67.0563 48.1238H64.9325L66.0053 42.9998Z" fill="white"/>
<path fill-rule="evenodd" clip-rule="evenodd" d="M71.3745 42.9998H72.4967L71.4241 48.1241H70.3016L71.3745 42.9998Z" fill="white"/>
<path fill-rule="evenodd" clip-rule="evenodd" d="M73.6472 42.9998H74.7979L76.1758 46.6455H76.1902L76.9147 42.9998H77.9372L76.8648 48.1241H75.7496L74.3576 44.5284H74.3432L73.6187 48.1241H72.5743L73.6472 42.9998Z" fill="white"/>
<mask id="mask1_62_61" style="mask-type:alpha" maskUnits="userSpaceOnUse" x="78" y="42" width="6" height="7">
<path fill-rule="evenodd" clip-rule="evenodd" d="M78.3767 42.8777H83.299V48.246H78.3767V42.8777Z" fill="white"/>
</mask>
<g mask="url(#mask1_62_61)">
<path fill-rule="evenodd" clip-rule="evenodd" d="M81.921 47.6003H81.9067C81.5731 48.0595 81.097 48.2461 80.6283 48.2461C79.2077 48.2461 78.3767 47.4207 78.3767 45.978C78.3767 44.3203 79.435 42.8777 81.1469 42.8777C82.3331 42.8777 83.299 43.4374 83.299 44.6937H82.1838C82.1555 44.0762 81.7719 43.825 81.154 43.825C80.0103 43.825 79.4919 44.9948 79.4919 45.978C79.4919 46.6818 79.8327 47.2985 80.6424 47.2985C81.4878 47.2985 81.8573 46.8465 82.049 46.1934H80.8771L81.0545 45.3537H83.2068L82.6241 48.1239H81.921V47.6003Z" fill="white"/>
</g>
<path fill-rule="evenodd" clip-rule="evenodd" d="M87.6307 45.4111H88.7671C89.3283 45.4111 89.6835 45.1243 89.6835 44.5139C89.6835 43.9972 89.2858 43.8751 88.8951 43.8751H87.9431L87.6307 45.4111ZM87.0058 42.9998H89.0371C90.0599 42.9998 90.7987 43.3584 90.7987 44.4925C90.7987 45.6264 89.8752 46.2867 88.824 46.2867H87.4461L87.0625 48.1238H85.9473L87.0058 42.9998Z" fill="white"/>
<path fill-rule="evenodd" clip-rule="evenodd" d="M93.7954 47.2985C94.8892 47.2985 95.4363 46.1218 95.4363 45.1526C95.4363 44.4349 95.1237 43.825 94.307 43.825C93.1632 43.825 92.6447 44.9948 92.6447 45.9778C92.6447 46.6815 92.9858 47.2985 93.7954 47.2985ZM94.3 42.8774C95.6709 42.8774 96.5515 43.6384 96.5515 45.0737C96.5515 46.7604 95.557 48.2458 93.7811 48.2458C92.3606 48.2458 91.5295 47.4207 91.5295 45.9778C91.5295 44.3203 92.5878 42.8774 94.3 42.8774Z" fill="white"/>
<path fill-rule="evenodd" clip-rule="evenodd" d="M98.0565 42.9998H99.1787L98.1061 48.1241H96.9836L98.0565 42.9998Z" fill="white"/>
<path fill-rule="evenodd" clip-rule="evenodd" d="M100.329 42.9998H101.48L102.858 46.6455H102.872L103.597 42.9998H104.619L103.547 48.1241H102.431L101.039 44.5284H101.025L100.301 48.1241H99.2562L100.329 42.9998Z" fill="white"/>
<path fill-rule="evenodd" clip-rule="evenodd" d="M107.055 43.9471H105.464L105.663 42.9998H109.896L109.697 43.9471H108.177L107.31 48.1238H106.188L107.055 43.9471Z" fill="white"/>
<mask id="mask2_62_61" style="mask-type:alpha" maskUnits="userSpaceOnUse" x="112" y="42" width="6" height="7">
<path fill-rule="evenodd" clip-rule="evenodd" d="M112.154 42.8777H117.076V48.246H112.154V42.8777Z" fill="white"/>
</mask>
<g mask="url(#mask2_62_61)">
<path fill-rule="evenodd" clip-rule="evenodd" d="M115.698 47.6003H115.684C115.35 48.0595 114.874 48.2461 114.405 48.2461C112.985 48.2461 112.154 47.4207 112.154 45.978C112.154 44.3203 113.212 42.8777 114.924 42.8777C116.11 42.8777 117.076 43.4374 117.076 44.6937H115.961C115.932 44.0762 115.549 43.825 114.931 43.825C113.787 43.825 113.269 44.9948 113.269 45.978C113.269 46.6818 113.61 47.2985 114.419 47.2985C115.265 47.2985 115.634 46.8465 115.826 46.1934H114.654L114.831 45.3537H116.984L116.401 48.1239H115.698V47.6003Z" fill="white"/>
</g>
<path fill-rule="evenodd" clip-rule="evenodd" d="M119.291 45.3179H120.321C120.911 45.3179 121.472 45.0812 121.472 44.507C121.472 43.9542 121.088 43.8753 120.648 43.8753H119.59L119.291 45.3179ZM118.652 42.9998H121.074C121.99 42.9998 122.587 43.3517 122.587 44.3419C122.587 45.038 122.104 45.6193 121.422 45.7198V45.7343C121.841 45.8634 121.948 46.2365 121.948 46.6387C121.948 46.8682 121.912 47.2129 121.912 47.5285C121.912 47.7583 121.927 47.9736 121.983 48.1241H120.896C120.868 48.0019 120.847 47.8947 120.847 47.7795C120.847 47.4351 120.904 47.0833 120.904 46.739C120.904 46.2437 120.612 46.122 120.172 46.122H119.121L118.702 48.1241H117.586L118.652 42.9998Z" fill="white"/>
<path fill-rule="evenodd" clip-rule="evenodd" d="M125.612 47.2985C126.706 47.2985 127.253 46.1218 127.253 45.1526C127.253 44.4349 126.94 43.825 126.124 43.825C124.98 43.825 124.461 44.9948 124.461 45.9778C124.461 46.6815 124.802 47.2985 125.612 47.2985ZM126.117 42.8774C127.487 42.8774 128.368 43.6384 128.368 45.0737C128.368 46.7604 127.374 48.2458 125.598 48.2458C124.177 48.2458 123.346 47.4207 123.346 45.9778C123.346 44.3203 124.404 42.8774 126.117 42.8774Z" fill="white"/>
<path fill-rule="evenodd" clip-rule="evenodd" d="M133.588 45.9779C133.282 47.4493 132.721 48.246 131.144 48.246C130.157 48.246 129.148 47.8441 129.148 46.7245C129.148 46.4663 129.205 46.2151 129.255 45.9639L129.873 42.9998H130.988L130.37 45.9639C130.335 46.1217 130.264 46.4445 130.264 46.6097C130.264 46.8682 130.448 47.2987 131.215 47.2987C132.124 47.2987 132.295 46.8107 132.458 46.0355L133.091 42.9998H134.206L133.588 45.9779Z" fill="white"/>
<mask id="mask3_62_61" style="mask-type:alpha" maskUnits="userSpaceOnUse" x="134" y="42" width="6" height="7">
<path fill-rule="evenodd" clip-rule="evenodd" d="M134.361 42.9998H139.212V48.1238H134.361V42.9998Z" fill="white"/>
</mask>
<g mask="url(#mask3_62_61)">
<path fill-rule="evenodd" clip-rule="evenodd" d="M136.045 45.4111H137.181C137.742 45.4111 138.097 45.1243 138.097 44.5139C138.097 43.9972 137.7 43.8751 137.309 43.8751H136.357L136.045 45.4111ZM135.42 42.9998H137.451C138.474 42.9998 139.213 43.3584 139.213 44.4925C139.213 45.6264 138.289 46.2867 137.238 46.2867H135.86L135.476 48.1238H134.361L135.42 42.9998Z" fill="white"/>
</g>
</svg>
