<svg width="57" height="57" viewBox="0 0 57 57" fill="none" xmlns="http://www.w3.org/2000/svg">
<g clip-path="url(#clip0_2_797)">
<path d="M37.3965 13.8648L31.6996 35.1186L33.2056 35.5222L38.9024 14.2685L37.3965 13.8648Z" fill="#D51820"/>
<path d="M16.2112 35.3518H6.57864V33.5586C6.57864 29.3223 8.91747 26.8482 10.9813 24.6658C12.729 22.8171 14.2383 21.2213 14.2383 18.8381C14.2383 15.8838 13.0118 15.4857 11.813 15.4857C11.2275 15.4857 9.44756 15.4857 9.44756 18.7483V20.1844H7.895V18.7483C7.895 15.6886 9.32335 13.9331 11.813 13.9331C13.6273 13.9331 15.7909 14.7837 15.7909 18.8381C15.7909 21.839 13.9189 23.8174 12.1091 25.7315C10.154 27.8008 8.13121 29.9456 8.13121 33.5586V33.7993H16.2112V35.3518Z" fill="#D51820"/>
<path d="M26.5911 35.4161H25.0386V32.321H16.5416V30.0875L23.7622 14.4322H26.5911V30.7684H29.5244V32.321H26.5911V35.4161ZM18.0942 30.7684H25.0386V15.9847H24.7558L18.0942 30.428V30.7684Z" fill="#D51820"/>
<path d="M40.2393 14.1061V15.7408H47.9633L41.9993 35.6612H43.7692L49.7687 15.5922L49.7754 15.5689V14.1061H40.2393Z" fill="#D51820"/>
<path d="M52.2572 56.47L39.4242 50.0535H0.0556641V-0.00109863H56.2983V50.0535H52.2572V56.47ZM1.60823 48.5009H39.7913L50.7047 53.9582V48.5009H54.7458V1.55146H1.60823V48.5009Z" fill="#D51820"/>
</g>
<defs>
<clipPath id="clip0_2_797">
<rect width="56.2438" height="56.47" fill="white" transform="translate(0.0556641)"/>
</clipPath>
</defs>
</svg>
