<svg width="57" height="57" viewBox="0 0 57 57" fill="none" xmlns="http://www.w3.org/2000/svg">
<path d="M7.91275 27.424C7.41384 27.424 6.89276 27.2911 6.37168 27.0253C4.47584 26.0616 3.26738 24.5886 2.76847 22.6503C2.28065 22.4952 1.89261 22.1408 1.6487 21.5981C1.26067 20.7452 1.09436 19.837 1.1498 18.9066C1.19415 18.2753 1.51566 17.7879 2.01457 17.5664C1.95913 16.4921 1.95913 15.4398 2.31391 14.3876C2.77956 12.9699 3.81063 12.106 5.28517 11.8623C5.46256 11.8402 5.61778 11.818 5.76191 11.8069C6.07234 11.1535 6.68211 10.8323 7.60232 10.8544H7.71318C9.48707 10.9652 10.9838 11.5854 12.1701 12.7152C13.4894 13.9667 14.0327 15.5949 13.7998 17.5553C14.0105 17.655 14.1657 17.7769 14.2766 17.8987C14.587 18.231 14.7311 18.6962 14.709 19.2721C14.6757 20.0585 14.5427 20.8006 14.2987 21.4651C14.1768 21.8085 13.8331 22.5174 13.0459 22.6946C12.4583 24.8544 11.1057 26.3718 8.99925 27.2135C8.63339 27.3575 8.27861 27.424 7.91275 27.424ZM2.70195 18.962C2.70195 18.9731 2.70195 18.9841 2.70195 18.9952C2.6576 19.6708 2.77956 20.3243 3.06781 20.9446C3.1676 21.155 3.2452 21.1661 3.28955 21.1661C3.52237 21.1772 4.07671 21.299 4.23193 22.03C4.57562 23.6582 5.50691 24.8322 7.08124 25.6297C7.58014 25.8844 8.00144 25.9287 8.41165 25.7626C10.1412 25.0759 11.1834 23.8465 11.6047 22.0079C11.782 21.1993 12.3918 21.155 12.6357 21.1661C12.669 21.1661 12.6912 21.1661 12.6912 21.1661C12.6912 21.1661 12.7577 21.1218 12.8242 20.9224C13.0127 20.3908 13.1235 19.8259 13.1457 19.1946C13.1457 19.0727 13.1346 18.9841 13.1235 18.9509C13.1125 18.9509 13.0792 18.9398 13.057 18.9398C12.6579 18.9288 12.4362 18.7183 12.3475 18.5965C12.2255 18.4414 12.1036 18.1756 12.1923 17.7879C12.2033 17.7658 12.2033 17.7326 12.2033 17.6993C12.2033 17.6661 12.2144 17.6329 12.2144 17.5996C12.4583 16.0158 12.0925 14.7753 11.0947 13.8117C10.1745 12.9367 9.0436 12.4715 7.63558 12.3829C7.6134 12.3829 7.58014 12.3829 7.55797 12.3829C7.23645 12.3718 7.18102 12.4272 7.18102 12.4272C7.18102 12.4272 7.14776 12.4604 7.12558 12.5822C7.10341 12.7041 6.92602 13.3133 6.16103 13.3133C6.14995 13.3133 6.13886 13.3133 6.12777 13.3133C5.95038 13.3133 5.76191 13.3354 5.52908 13.3686C4.60888 13.5126 4.07671 13.9667 3.78846 14.8417C3.48911 15.7389 3.52237 16.6914 3.58889 17.7658C3.63324 18.6629 3.06781 18.8955 2.70195 18.962ZM13.7111 18.1313C13.7111 18.1424 13.7111 18.1424 13.7111 18.1313C13.7111 18.1424 13.7111 18.1424 13.7111 18.1313Z" fill="#D51820"/>
<path d="M1.97055 40.0949H0.418396V31.0237L4.97507 27.6677V25.818H6.52722V28.4541L1.97055 31.8101V40.0949Z" fill="#D51820"/>
<path d="M49.4222 27.424C48.9233 27.424 48.4022 27.2911 47.8811 27.0253C45.9853 26.0616 44.7768 24.5886 44.2779 22.6503C43.7901 22.4952 43.4021 22.1408 43.1582 21.5981C42.7701 20.7452 42.6038 19.837 42.6593 18.9066C42.7036 18.2753 43.0251 17.7879 43.524 17.5664C43.4686 16.4921 43.4686 15.4398 43.8234 14.3876C44.289 12.9699 45.3201 12.106 46.7946 11.8623C46.972 11.8402 47.1272 11.818 47.2714 11.8069C47.5818 11.1535 48.1916 10.8323 49.1118 10.8544H49.2226C50.9965 10.9652 52.4933 11.5854 53.6795 12.7152C54.9989 13.9667 55.5421 15.5949 55.3093 17.5553C55.52 17.655 55.6752 17.7769 55.786 17.8987C56.0965 18.231 56.2406 18.6962 56.2184 19.2721C56.1852 20.0585 56.0521 20.8006 55.8082 21.4651C55.6863 21.8085 55.3426 22.5174 54.5554 22.6946C53.9678 24.8544 52.6152 26.3718 50.5087 27.2135C50.1429 27.3575 49.777 27.424 49.4222 27.424ZM44.2003 18.962C44.2003 18.9731 44.2003 18.9841 44.2003 18.9952C44.156 19.6708 44.2779 20.3243 44.5662 20.9446C44.666 21.155 44.7436 21.1661 44.7879 21.1661C45.0207 21.1772 45.5751 21.299 45.7303 22.03C46.074 23.6582 47.0053 24.8322 48.5796 25.6297C49.0785 25.8844 49.4998 25.9287 49.91 25.7626C51.6396 25.0759 52.6817 23.8465 53.103 22.0079C53.2804 21.1993 53.8902 21.155 54.1341 21.1661C54.1674 21.1661 54.1895 21.1661 54.1895 21.1661C54.1895 21.1661 54.2561 21.1218 54.3226 20.9224C54.5111 20.3908 54.6219 19.8259 54.6441 19.1946C54.6441 19.0727 54.633 18.9841 54.6219 18.9509C54.6108 18.9509 54.5776 18.9398 54.5554 18.9398C54.1563 18.9288 53.9345 18.7183 53.8458 18.5965C53.7239 18.4414 53.6019 18.1756 53.6906 17.7879C53.7017 17.7658 53.7017 17.7326 53.7017 17.6993C53.7017 17.6661 53.7128 17.6329 53.7128 17.5996C53.9567 16.0047 53.5908 14.7753 52.593 13.8117C51.6728 12.9367 50.542 12.4715 49.134 12.3829C49.1118 12.3829 49.0785 12.3829 49.0563 12.3829C48.7348 12.3718 48.6794 12.4272 48.6794 12.4272C48.6794 12.4272 48.6461 12.4604 48.624 12.5822C48.6018 12.7041 48.4133 13.3243 47.6483 13.3133C47.4709 13.3133 47.2714 13.3243 47.0275 13.3686C46.1073 13.5126 45.5751 13.9667 45.2868 14.8417C44.9875 15.7389 45.0207 16.6914 45.0873 17.7658C45.1316 18.6629 44.5662 18.8955 44.2003 18.962ZM55.2095 18.1313C55.2095 18.1424 55.2095 18.1424 55.2095 18.1313C55.2095 18.1424 55.2095 18.1424 55.2095 18.1313ZM54.6108 17.4003C54.6219 17.4003 54.6219 17.4003 54.6108 17.4003C54.6219 17.4003 54.6219 17.4003 54.6108 17.4003Z" fill="#D51820"/>
<path d="M56.884 40.0949H55.3319V31.8101L50.7752 28.4541V25.818H52.3274V27.6677L56.884 31.0237V40.0949Z" fill="#D51820"/>
<path d="M28.5686 26.6265C27.7703 26.6265 26.9499 26.4271 26.1073 26.0284C22.7702 24.4556 20.6858 22.0078 19.9098 18.7515C19.0561 18.6186 18.3687 18.0869 17.9474 17.223C17.2822 15.8718 17.005 14.4319 17.0937 12.9588C17.1602 11.962 17.7368 11.2531 18.6681 11.0316C18.5572 9.14867 18.5128 7.32114 19.1448 5.51576C19.9098 3.32273 21.5395 2.03792 23.9675 1.67242C24.411 1.60596 24.7991 1.57273 25.1538 1.56166C25.7636 -0.0443515 27.3601 -0.0111239 27.992 -4.79398e-05C28.0142 -4.79398e-05 28.0364 -4.79398e-05 28.0697 -4.79398e-05H28.1473H28.1694C31.2183 0.177167 33.6907 1.14077 35.7306 2.94615C38.0367 4.99519 38.9458 7.7088 38.4136 11.0094C38.8571 11.1091 39.223 11.3085 39.5001 11.6186C39.9214 12.0727 40.121 12.7151 40.0767 13.5126C40.0212 14.7752 39.7773 15.9604 39.3671 17.0347C39.1232 17.6771 38.5245 18.6961 37.2052 18.7847C36.2628 22.4066 33.9235 24.9429 30.2427 26.3164C29.6994 26.5268 29.1451 26.6265 28.5686 26.6265ZM25.3756 3.11229C25.0319 3.11229 24.6549 3.14551 24.2004 3.21197C22.3267 3.48887 21.1848 4.38602 20.6082 6.03633C20.0539 7.60911 20.1093 9.25943 20.2202 11.087C20.2424 11.3971 20.2978 12.3496 19.1004 12.5268C18.8233 12.5711 18.657 12.6597 18.6348 13.0585C18.5572 14.2657 18.79 15.4287 19.3333 16.5363C19.6215 17.1233 19.9874 17.2119 20.2424 17.2341C20.6637 17.2562 21.1958 17.4556 21.3732 18.2642C22.0274 21.1439 23.7791 23.2262 26.7614 24.6328C27.8257 25.1312 28.7792 25.2088 29.6772 24.8765C32.9589 23.6471 34.9324 21.4762 35.7306 18.242C35.8969 17.5442 36.3071 17.2119 36.9391 17.2452C37.2495 17.2673 37.6154 17.223 37.9037 16.4809C38.2695 15.5506 38.458 14.5537 38.5134 13.4461C38.5245 13.0806 38.4691 12.8037 38.3471 12.6708C38.2473 12.5601 38.0478 12.4936 37.7706 12.4825C37.3271 12.4714 37.0832 12.261 36.9502 12.0949C36.8171 11.9287 36.6841 11.6297 36.795 11.1756C36.8061 11.1313 36.8171 11.0648 36.8282 10.9983C36.8393 10.954 36.8393 10.8987 36.8504 10.8544C37.3271 8.03 36.6176 5.82589 34.6774 4.10912C32.9368 2.54741 30.7748 1.71672 28.1029 1.55058H28.0807C28.0364 1.55058 28.0031 1.55058 27.9588 1.55058C26.9055 1.52843 26.6838 1.74995 26.5619 2.30374C26.5064 2.54742 26.2847 3.11229 25.431 3.11229C25.4088 3.11229 25.3867 3.11229 25.3756 3.11229Z" fill="#D51820"/>
<path d="M52.1723 56.4649L46.9615 33.1058C44.0789 31.9982 33.4245 27.9776 33.3137 27.9333L32.8148 27.745V23.4033H34.3669V26.6707C36.6508 27.5346 46.0302 31.0789 47.915 31.8099L48.303 31.965L53.6912 56.1326L52.1723 56.4649Z" fill="#D51820"/>
<path d="M5.25327 56.4649L3.73438 56.1326L9.11147 31.965L9.49951 31.8099C11.3843 31.0789 20.7859 27.5346 23.0698 26.6707V23.4033H24.6219V27.745L24.123 27.9333C24.0121 27.9776 13.3355 31.9982 10.453 33.1058L5.25327 56.4649Z" fill="#D51820"/>
<path d="M17.1939 47.438H15.6417V56.2988H17.1939V47.438Z" fill="#D51820"/>
<path d="M40.0872 47.438H38.5351V56.2988H40.0872V47.438Z" fill="#D51820"/>
<path d="M28.5686 36.2071L23.1915 27.6233L24.4997 26.8036L28.6018 33.3384L32.9368 26.7815L34.2339 27.6454L28.5686 36.2071Z" fill="#D51820"/>
</svg>
