<svg width="50" height="57" viewBox="0 0 50 57" fill="none" xmlns="http://www.w3.org/2000/svg">
<path d="M24.7515 56.4649L24.4602 56.3519C18.3047 53.8892 13.2891 51.0496 9.55275 47.8959C6.22168 45.0815 3.82787 41.9403 2.42198 38.573C0.268816 33.3839 0.420804 27.6419 2.87794 21.0078C5.82904 13.0293 1.06675 9.68714 0.864102 9.54893L0.129494 9.04635L0.712114 8.38043L8.17219 -0.00012207L8.75481 0.515024C8.76748 0.527589 10.7053 2.21124 13.5804 3.02793C17.3675 4.09592 20.9518 3.2541 24.2449 0.50246L24.7515 0.0752652L25.2582 0.50246C28.5639 3.26666 32.1736 4.10848 35.9733 3.01537C38.8358 2.18611 40.7229 0.540153 40.7483 0.527589L41.3309 0.0124425L49.3863 9.07148L48.6516 9.5615C48.4363 9.69971 43.6867 13.0544 46.6251 21.0204C49.0696 27.6544 49.2216 33.3964 47.0684 38.5856C45.6752 41.9529 43.2814 45.0815 39.9377 47.9085C36.2013 51.0622 31.1984 53.9143 25.0302 56.3644L24.7515 56.4649ZM2.40931 8.82019C2.95394 9.33533 3.73921 10.2149 4.35983 11.4839C5.32242 13.4439 6.09502 16.7861 4.34716 21.5355C2.04201 27.7927 1.87736 33.1703 3.87853 37.9825C6.63964 44.6543 13.6691 50.3209 24.7515 54.7939C35.834 50.3209 42.8634 44.6543 45.6246 37.9825C47.6131 33.1703 47.4611 27.7927 45.1559 21.5355C43.4081 16.7861 44.1807 13.4565 45.1433 11.4839C45.7639 10.2023 46.5491 9.33533 47.0938 8.82019L41.1662 2.16098C40.3176 2.78921 38.6331 3.85719 36.4039 4.49799C33.5288 5.32725 29.2225 5.55341 24.7389 2.08559C20.2679 5.55341 15.9616 5.32725 13.0865 4.49799C10.87 3.85719 9.18544 2.77664 8.32418 2.16098L2.40931 8.82019Z" fill="#D51820"/>
<path d="M25.5384 37.4675H23.9678V42.4556H25.5384V37.4675Z" fill="#D51820"/>
<path d="M25.5384 11.4966H23.9678V16.4847H25.5384V11.4966Z" fill="#D51820"/>
<path d="M24.5363 37.8319C23.5103 37.8319 22.5098 37.6937 21.5725 37.4173C20.6479 37.1408 19.8373 36.7262 19.1534 36.1608C18.4694 35.5954 17.8995 34.8918 17.4815 34.0751C17.2535 33.6228 17.0762 33.1202 16.9495 32.5673L18.4821 32.2407C18.5707 32.6553 18.7101 33.0448 18.8747 33.3715C19.204 33.9997 19.622 34.54 20.1539 34.9672C20.6732 35.3944 21.3065 35.721 22.0285 35.9346C22.8137 36.1734 23.6623 36.2865 24.5363 36.2865C25.5242 36.2865 26.4614 36.1859 27.3354 35.9723C28.108 35.7839 28.7919 35.4949 29.3365 35.118C29.8432 34.7661 30.2485 34.3138 30.5524 33.7358C30.8944 33.1076 31.0464 32.4291 30.9957 31.7255C30.9324 30.7706 30.5144 30.1424 29.4632 29.376C28.9566 28.999 28.3106 28.6598 27.5 28.3205C26.6641 27.9813 25.8408 27.6546 25.0682 27.3782C24.2829 27.1143 23.5103 26.8128 22.7757 26.4987C22.0031 26.172 21.3065 25.8202 20.6732 25.4558C19.926 25.0161 19.3053 24.526 18.8367 23.9858C18.1908 23.2445 17.8361 22.3398 17.8361 21.3598C17.8361 19.7892 18.5581 18.4825 19.926 17.5778C21.0659 16.824 22.5604 16.4596 24.5109 16.4596C26.1068 16.4596 27.538 16.7486 28.7666 17.314C29.4379 17.6281 30.6664 18.3945 31.2997 20.0656L29.8305 20.6059C29.3872 19.45 28.5639 18.9222 28.108 18.7212C27.0821 18.2438 25.8661 18.005 24.5109 18.005C22.8897 18.005 21.6738 18.2815 20.7999 18.8594C19.8753 19.4751 19.4067 20.3169 19.4067 21.3472C19.4067 21.9377 19.622 22.5031 20.0146 22.9555C20.3693 23.3701 20.8632 23.747 21.4585 24.0988C22.0285 24.4255 22.6744 24.7522 23.3837 25.0537C24.0803 25.3553 24.8276 25.6317 25.5875 25.8956C26.3981 26.1846 27.234 26.5112 28.0953 26.863C29.0199 27.24 29.7672 27.642 30.3878 28.0944C31.3884 28.8231 32.4396 29.8157 32.5536 31.5999C32.6169 32.605 32.4143 33.5599 31.9203 34.452C31.4897 35.2436 30.9324 35.8593 30.2231 36.3618C29.5012 36.8644 28.6526 37.2288 27.6773 37.455C26.7147 37.7188 25.6508 37.8319 24.5363 37.8319Z" fill="#D51820"/>
</svg>
