<svg width="57" height="57" viewBox="0 0 57 57" fill="none" xmlns="http://www.w3.org/2000/svg">
<path d="M28.5104 39.7832C18.0815 39.7832 9.6073 31.3313 9.6073 20.9356V3.05176e-05H47.458L47.4247 20.8912C47.4136 31.309 38.9283 39.7832 28.5104 39.7832ZM11.1511 1.55493V20.9356C11.1511 30.4761 18.9367 38.2283 28.4993 38.2283C38.0731 38.2283 45.8587 30.4538 45.8587 20.8912L45.892 1.55493H11.1511Z" fill="#D51820"/>
<path d="M12.0171 29.7319C8.15208 29.7319 4.98675 28.4214 2.86542 25.9335C1.0884 23.8344 0.111031 20.9689 0.111031 17.8591V5.06454H10.5066V6.61944H1.66593V17.8591C1.66593 22.6127 4.3759 28.177 12.0282 28.177V29.7319H12.0171Z" fill="#D51820"/>
<path d="M45.1696 29.7319V28.177C53.9436 28.177 54.8988 20.9689 54.8988 17.8591V6.61944H47.0688V5.06454H56.4537V17.8591C56.4537 20.1026 56.0316 23.3124 54.0325 25.9002C52.0555 28.4436 49.079 29.7319 45.1696 29.7319Z" fill="#D51820"/>
<path d="M44.9359 55.5656H43.381V47.2357H13.8046V55.5656H12.2497V45.6808H44.9359V55.5656Z" fill="#D51820"/>
<path d="M23.5553 38.739H22.0004V46.0803H23.5553V38.739Z" fill="#D51820"/>
<path d="M35.1954 38.739H33.6405V46.0803H35.1954V38.739Z" fill="#D51820"/>
<path d="M56.809 54.9103H-0.000389099V56.4652H56.809V54.9103Z" fill="#D51820"/>
</svg>
