<svg width="150" height="150" viewBox="0 0 150 150" fill="none" xmlns="http://www.w3.org/2000/svg">
<path d="M78.0441 150C117.784 150 148.637 116.421 146.956 75C145.275 33.5786 111.696 0 71.9559 0C32.2157 0 1.3629 33.5786 3.04412 75C4.72534 116.421 38.304 150 78.0441 150Z" fill="#77BF00"/>
<path d="M92.8498 42.5778C88.5642 40.5619 83.4867 40.4849 76.1168 42.3534L76.0021 42.3801L72.4315 28.4771L64.95 30.3875L68.5353 44.3159C66.3043 44.9084 63.8421 45.5608 61.4292 46.2301L57.8458 32.1875L50.3527 34.0876L53.9077 48.1692C51.2906 48.945 38.5753 51.977 38.5753 51.977L40.5192 60.163L50.2334 57.908L60.6965 98.8725L51.074 101.12L53.0944 109.448C53.0944 109.448 65.828 106.575 68.726 105.982L72.3033 120.142L79.7848 118.231L76.2292 104.286C78.7465 103.748 81.2433 103.087 83.4323 102.598L86.911 116.469L94.3925 114.559L90.936 100.913C99.1332 98.606 104.497 95.4075 107.308 91.0698C108.49 89.187 109.268 87.08 109.595 84.8815C109.922 82.6829 109.79 80.4405 109.207 78.2955C107.046 69.7429 99.542 66.8144 93.7797 66.8443L93.7456 66.6774C99.1808 62.9173 101.591 57.1204 100.185 51.5702C99.0334 47.0097 96.3753 44.0316 92.8498 42.5778ZM89.6152 82.4534C90.8785 87.4526 87.7097 92.1606 80.7015 93.9504L74.7034 95.4624L70.4718 78.8082C72.3127 77.9572 74.2362 77.2976 76.212 76.8399C82.9 75.1615 88.0859 76.3861 89.6152 82.4534ZM83.9463 58.1576C84.3114 59.4948 84.3225 60.904 83.9784 62.2468C83.6343 63.5896 82.9469 64.8199 81.9837 65.8167C80.4556 67.5189 78.1253 68.87 75.0604 69.6442L75.018 69.6687L69.0528 71.1787L64.8339 54.5171C66.6741 53.6741 68.5958 53.0213 70.5688 52.5689C70.5942 52.5543 70.6112 52.5445 70.6366 52.5298C73.6463 51.7874 76.3355 51.626 78.5262 52.2273C81.1926 52.9669 83.12 54.8457 83.9463 58.1576Z" fill="white"/>
</svg>
