<svg width="150" height="150" viewBox="0 0 150 150" fill="none" xmlns="http://www.w3.org/2000/svg">
<path d="M76.2125 150C116.964 150 149.457 116.421 148.787 75C148.118 33.5786 114.539 0 73.7875 0C33.0358 0 0.542872 33.5786 1.21254 75C1.8822 116.421 35.4608 150 76.2125 150Z" fill="#F7931A"/>
<path d="M106.243 56.3844C103.505 52.4466 99.0912 49.8082 91.6818 47.7153L91.5678 47.6806L95.4758 33.6802L87.9474 31.5675L84.0394 45.5977C81.7828 44.9876 79.2932 44.3132 76.8383 43.6784L80.8058 29.549L73.2725 27.4214L69.2603 41.5706C66.5723 40.9259 53.8861 37.1468 53.8861 37.1468L51.4461 45.31L61.107 48.2509L49.5416 89.4736L39.965 86.5724L37.52 94.8993C37.52 94.8993 50.1417 98.8271 52.9835 99.7744L48.9515 114.003L56.4799 116.116L60.4226 102.085C62.9023 102.889 65.4267 103.573 67.5939 104.253L63.6214 118.179L71.1498 120.291L75.0281 106.574C83.3847 108.701 89.708 108.612 94.3698 106.232C96.3591 105.178 98.1087 103.725 99.5086 101.962C100.908 100.2 101.928 98.1664 102.503 95.9903C104.938 87.3957 99.8401 81.0278 94.7715 78.1364L94.8261 77.9728C101.497 77.4272 106.545 73.5638 108.122 67.9845C109.422 63.402 108.598 59.4444 106.243 56.3844ZM83.2161 89.7167C81.7927 94.7405 76.63 97.2649 69.5777 95.2861L63.552 93.5751L68.2734 76.8271C70.3187 77.0129 72.3396 77.4085 74.304 78.0075C81.0191 79.9218 84.9469 83.6215 83.2161 89.7167ZM90.5461 65.5395C90.1892 66.8971 89.4854 68.1385 88.5038 69.1419C87.5221 70.1453 86.2964 70.8761 84.9469 71.2627C82.7449 71.9818 80.0173 71.9867 76.9375 71.1139H76.8879L70.8919 69.4178L75.6282 52.6698C77.6689 52.8623 79.6846 53.2627 81.644 53.865C81.6737 53.865 81.6936 53.865 81.7233 53.865C84.7386 54.7379 87.1787 55.9579 88.7954 57.5945C90.7594 59.5931 91.4983 62.2167 90.5461 65.5395Z" fill="white"/>
</svg>
