<svg width="150" height="150" viewBox="0 0 150 150" fill="none" xmlns="http://www.w3.org/2000/svg">
<path d="M150 74.9999C150 33.5786 116.421 -6.59994e-05 75 -6.42332e-05C33.5786 -6.24669e-05 -5.21681e-06 33.5786 -3.36073e-06 74.9999C-1.50465e-06 116.421 33.5786 150 75 150C116.421 150 150 116.421 150 74.9999Z" fill="#3E7DDD"/>
<path d="M104.53 72.8306L74.9253 57.0624V13.7599L75.0698 13.4783L104.53 72.8306Z" fill="#C0CCF7"/>
<path d="M104.929 73.6387L75.0698 94.6645L74.9253 94.5629V57.0627L104.53 72.8309L104.929 73.6387Z" fill="#A6B9FF"/>
<path d="M74.927 13.7592V57.0616L45.064 73.3791L74.927 13.7592Z" fill="white"/>
<path d="M104.53 81.1765L74.9253 102.604V131.472L75.0698 131.754L104.53 81.1765Z" fill="#C0CCF7"/>
<path d="M74.927 131.472V102.604L45.064 80.627L74.927 131.472Z" fill="white"/>
<path d="M74.9244 57.0627V94.5629L44.9282 73.6387L45.0614 73.3802L74.9244 57.0627Z" fill="#C0CCF7"/>
</svg>
