<svg width="150" height="150" viewBox="0 0 150 150" fill="none" xmlns="http://www.w3.org/2000/svg">
<path d="M75 150C116.421 150 150 116.421 150 75C150 33.5786 116.421 0 75 0C33.5786 0 0 33.5786 0 75C0 116.421 33.5786 150 75 150Z" fill="#907EFF"/>
<path d="M98.1039 82.7398C96.4721 82.3501 94.789 82.1973 93.1102 82.2867C91.8919 82.3365 90.6855 82.0375 89.6434 81.4277C88.6013 80.8178 87.7702 79.9244 87.2551 78.8601L86.7408 77.8302C86.2708 76.8798 86.0676 75.8274 86.1515 74.7779C86.2354 73.7284 86.6035 72.7184 87.2191 71.8485L88.2734 70.363C88.8448 69.5387 89.6224 68.866 90.5346 68.407C91.4468 67.9479 92.4643 67.7172 93.4934 67.7361C94.9227 67.7779 96.3517 67.6456 97.7465 67.3424C105.165 65.748 110.804 59.5856 111.375 52.2892C111.574 49.79 111.187 47.2797 110.243 44.9438C109.299 42.6079 107.822 40.5058 105.921 38.7929C104.021 37.08 101.745 35.7998 99.2621 35.047C96.779 34.2941 94.1521 34.0878 91.5751 34.4432C84.4703 35.384 77.6457 42.0961 76.7945 48.9542C76.2965 52.8188 77.2199 56.7292 79.4045 60.0065C80.7957 62.0911 80.8291 64.7527 79.3299 66.7656L77.9723 68.5927C77.3852 69.3825 76.6086 70.0241 75.7088 70.4629C74.8089 70.9017 73.8123 71.1248 72.8037 71.1132C71.6511 71.0996 70.5252 70.7775 69.5519 70.1828C68.5787 69.5881 67.7966 68.7444 67.2931 67.746C65.5951 64.3529 62.7572 61.611 59.239 59.9643C55.7209 58.3176 51.7284 57.8625 47.9082 58.6728C44.0879 59.483 40.6636 61.5112 38.1897 64.4288C35.7157 67.3464 34.3371 70.9826 34.277 74.7486C34.2168 78.5146 35.4788 82.1899 37.8584 85.1793C40.238 88.1688 43.596 90.2973 47.3885 91.2202C51.1811 92.1431 55.1862 91.8064 58.7553 90.2646C62.3244 88.7228 65.2484 86.0662 67.0539 82.725C67.5853 81.7767 68.3756 80.9863 69.3396 80.4391C70.3036 79.892 71.4044 79.6088 72.5234 79.6202H73.138C74.1342 79.6201 75.1161 79.8492 76.0017 80.2885C76.8874 80.7278 77.6512 81.3645 78.2294 82.1456L79.1783 83.4281C80.6645 85.4336 80.6465 88.0753 79.294 90.1674C77.1782 93.4394 76.3033 97.3155 76.8177 101.138C77.6997 107.954 84.532 114.619 91.588 115.555C94.1664 115.909 96.7945 115.701 99.2782 114.946C101.762 114.191 104.038 112.909 105.937 111.193C107.837 109.477 109.312 107.373 110.253 105.035C111.194 102.696 111.578 100.184 111.375 97.6841C110.804 90.5214 105.348 84.4556 98.1039 82.7398Z" fill="white"/>
</svg>
